<?xml version="1.0"?>
<svg xmlns="http://www.w3.org/2000/svg" xmlns:xlink="http://www.w3.org/1999/xlink" xmlns:svgjs="http://svgjs.com/svgjs" version="1.1" width="512" height="512" x="0" y="0" viewBox="0 0 512 512" style="enable-background:new 0 0 512 512" xml:space="preserve" class=""><g>
<g xmlns="http://www.w3.org/2000/svg">
	<g>
		<path d="M492,0H344.212c-11.046,0-20,8.954-20,20s8.954,20,20,20h99.503L283.394,200.322c-7.811,7.811-7.811,20.474,0,28.284    c7.81,7.81,20.473,7.811,28.284,0L472,68.284v99.503c0,11.046,8.954,20,20,20c11.046,0,20-8.954,20-20V20    C512,9.115,503.154,0,492,0z" fill="#f7d6d6" data-original="#000000" style="" class=""/>
	</g>
</g>
<g xmlns="http://www.w3.org/2000/svg">
	<g>
		<path d="M228.606,283.394c-7.811-7.81-20.474-7.811-28.284,0L40,443.716v-99.503c0-11.046-8.954-20-20-20s-20,8.954-20,20V492    c0,10.866,8.853,20,20,20h147.788c11.046,0,20-8.954,20-20c0-11.046-8.954-20-20-20H68.284l160.322-160.322    C236.417,303.867,236.417,291.204,228.606,283.394z" fill="#f7d6d6" data-original="#000000" style="" class=""/>
	</g>
</g>
<g xmlns="http://www.w3.org/2000/svg">
</g>
<g xmlns="http://www.w3.org/2000/svg">
</g>
<g xmlns="http://www.w3.org/2000/svg">
</g>
<g xmlns="http://www.w3.org/2000/svg">
</g>
<g xmlns="http://www.w3.org/2000/svg">
</g>
<g xmlns="http://www.w3.org/2000/svg">
</g>
<g xmlns="http://www.w3.org/2000/svg">
</g>
<g xmlns="http://www.w3.org/2000/svg">
</g>
<g xmlns="http://www.w3.org/2000/svg">
</g>
<g xmlns="http://www.w3.org/2000/svg">
</g>
<g xmlns="http://www.w3.org/2000/svg">
</g>
<g xmlns="http://www.w3.org/2000/svg">
</g>
<g xmlns="http://www.w3.org/2000/svg">
</g>
<g xmlns="http://www.w3.org/2000/svg">
</g>
<g xmlns="http://www.w3.org/2000/svg">
</g>
</g></svg>
