<?xml version="1.0" standalone="no"?>
<!DOCTYPE svg PUBLIC "-//W3C//DTD SVG 20010904//EN"
 "http://www.w3.org/TR/2001/REC-SVG-20010904/DTD/svg10.dtd">
<svg version="1.0" xmlns="http://www.w3.org/2000/svg"
 width="220.000000pt" height="80.000000pt" viewBox="0 0 220.000000 60.000000"
 preserveAspectRatio="xMidYMid meet">

<g transform="translate(0.000000,60.000000) scale(0.100000,-0.100000)"
fill="rgb(250, 236, 247)" stroke="none">
<path d="M805 559 c-375 -22 -677 -107 -750 -211 -59 -86 41 -177 265 -241
207 -60 430 -81 760 -74 314 7 489 33 685 103 126 45 195 101 195 157 0 101
-196 192 -520 242 -83 12 -439 38 -480 34 -8 -1 -78 -6 -155 -10z m578 -44
c224 -33 390 -90 452 -155 107 -111 -69 -223 -445 -283 -195 -30 -585 -30
-780 0 -233 37 -392 93 -449 159 -39 44 -39 74 0 118 74 85 277 144 614 180
91 9 504 -3 608 -19z"/>
<path d="M260 307 c0 -58 4 -97 10 -97 6 0 10 20 10 46 l0 45 48 -3 47 -3 3
-42 c6 -79 22 -44 22 46 0 92 -16 136 -22 59 l-3 -43 -45 0 c-44 0 -45 1 -48
35 -2 19 -8 39 -13 45 -5 5 -9 -28 -9 -88z"/>
<path d="M469 371 c-47 -47 -38 -119 18 -149 95 -51 181 72 104 149 -20 20
-39 29 -61 29 -22 0 -41 -9 -61 -29z m111 -11 c25 -25 27 -86 3 -112 -20 -23
-80 -24 -105 -1 -25 23 -24 87 2 113 11 11 33 20 50 20 17 0 39 -9 50 -20z"/>
<path d="M667 393 c-11 -11 -8 -183 3 -183 6 0 10 18 10 40 0 54 27 54 58 0
12 -22 27 -40 33 -40 6 0 1 17 -11 37 l-22 38 21 13 c29 19 28 66 -1 86 -23
16 -79 22 -91 9z m91 -45 c3 -22 -2 -30 -22 -39 -37 -17 -56 -5 -56 36 0 36 1
36 38 33 32 -3 37 -7 40 -30z"/>
<path d="M820 390 c0 -5 11 -10 25 -10 25 0 25 -1 25 -85 0 -50 4 -85 10 -85
6 0 10 35 10 85 0 85 0 85 26 85 14 0 23 4 19 10 -3 6 -31 10 -61 10 -30 0
-54 -4 -54 -10z"/>
<path d="M980 305 l0 -95 45 0 c25 0 45 5 45 10 0 6 -16 10 -35 10 -33 0 -35
2 -35 35 0 33 2 35 33 36 l32 1 -30 7 c-25 5 -31 12 -33 39 -3 31 -2 32 32 32
20 0 36 5 36 10 0 6 -20 10 -45 10 l-45 0 0 -95z"/>
<path d="M1120 305 c0 -111 18 -130 22 -22 l3 72 49 -72 c27 -40 53 -73 57
-73 5 0 9 44 9 97 0 111 -17 119 -22 9 l-3 -69 -48 77 c-27 42 -53 76 -58 76
-5 0 -9 -43 -9 -95z"/>
<path d="M1399 341 c-16 -13 -23 -29 -23 -54 0 -62 52 -95 105 -67 13 7 19 7
19 0 0 -5 5 -10 10 -10 6 0 10 32 10 76 0 68 -2 75 -15 64 -12 -10 -19 -10
-27 -2 -18 18 -53 14 -79 -7z m85 -17 c19 -18 21 -65 4 -82 -13 -13 -57 -16
-74 -4 -22 14 -26 52 -10 77 19 29 57 33 80 9z"/>
<path d="M1636 341 c-23 -25 -12 -46 35 -64 21 -8 39 -22 39 -30 0 -21 -35
-27 -60 -10 -27 19 -42 6 -16 -13 24 -17 68 -18 84 -2 25 25 13 48 -34 68 -26
12 -44 25 -42 33 6 16 47 22 61 8 20 -20 31 -11 12 9 -23 25 -57 26 -79 1z"/>
<path d="M1566 231 c-4 -7 -5 -15 -2 -18 9 -9 19 4 14 18 -4 11 -6 11 -12 0z"/>
<path d="M1766 233 c-11 -11 -6 -23 9 -23 8 0 15 4 15 9 0 13 -16 22 -24 14z"/>
</g>
</svg>
